<svg width="569" height="163" viewBox="0 0 569 163" fill="none" xmlns="http://www.w3.org/2000/svg">
<path d="M227.232 0H235.656L158.976 162.216L79.488 0H88.5601L158.976 141.48L227.232 0ZM62.856 108.432L84.2401 152.064L79.488 162.216L0 0H8.64001L62.856 108.432Z" fill="#1C1C23"/>
<path d="M382.132 0V9.072H292.06V77.976H370.036V87.48L292.06 87.264V153.144H382.132V162.216H282.988V0H382.132Z" fill="#1C1C23"/>
<path d="M512.322 162.216C501.234 162.216 490.722 160.056 480.786 155.736C470.994 151.416 462.426 145.584 455.082 138.24C447.738 130.896 441.906 122.328 437.586 112.536C433.266 102.744 431.106 92.304 431.106 81.216C431.106 70.128 433.266 59.688 437.586 49.896C441.906 39.96 447.738 31.32 455.082 23.976C462.426 16.632 470.994 10.8 480.786 6.48C490.722 2.16 501.234 0 512.322 0C532.05 0 549.33 6.19199 564.162 18.576L557.682 23.976C551.202 18.648 544.146 14.832 536.514 12.528C529.026 10.224 520.962 9.072 512.322 9.072C502.386 9.072 493.026 10.944 484.242 14.688C475.458 18.432 467.754 23.544 461.13 30.024C454.65 36.504 449.538 44.136 445.794 52.92C442.05 61.704 440.178 71.136 440.178 81.216C440.178 91.152 442.05 100.512 445.794 109.296C449.538 118.08 454.65 125.712 461.13 132.192C467.61 138.672 475.242 143.784 484.026 147.528C492.81 151.272 502.242 153.144 512.322 153.144C520.242 153.144 527.946 151.992 535.434 149.688C543.066 147.384 550.986 142.992 559.194 136.512V91.8H523.122V82.728H568.266V140.184C566.25 141.768 563.442 143.856 559.842 146.448C556.242 148.896 551.994 151.344 547.098 153.792C542.202 156.096 536.802 158.112 530.898 159.84C525.138 161.424 518.946 162.216 512.322 162.216Z" fill="#1C1C23"/>
</svg>
