{
    "asset" : {
        "generator" : "Khronos glTF Blender I/O v3.4.50",
        "version" : "2.0"
    },
    "extensionsUsed" : [
        "KHR_materials_specular",
        "KHR_materials_ior"
    ],
    "scene" : 0,
    "scenes" : [
        {
            "name" : "Scene",
            "nodes" : [
                0
            ]
        }
    ],
    "nodes" : [
        {
            "extras" : {
                "MaxHandle" : 179
            },
            "mesh" : 0,
            "name" : "Object001",
            "scale" : [
                0.04916081205010414,
                0.04916081205010414,
                0.04916081205010414
            ],
            "translation" : [
                -0.0019131302833557129,
                0.7679648399353027,
                -0.11011171340942383
            ]
        }
    ],
    "materials" : [
        {
            "doubleSided" : true,
            "extensions" : {
                "KHR_materials_specular" : {
                    "specularColorFactor" : [
                        0,
                        0,
                        0
                    ]
                },
                "KHR_materials_ior" : {
                    "ior" : 1.4500000476837158
                }
            },
            "name" : "01 - Default",
            "pbrMetallicRoughness" : {
                "baseColorTexture" : {
                    "index" : 0
                },
                "roughnessFactor" : 0.858578622341156
            }
        }
    ],
    "meshes" : [
        {
            "name" : "Mesh",
            "primitives" : [
                {
                    "attributes" : {
                        "POSITION" : 0,
                        "TEXCOORD_0" : 1,
                        "NORMAL" : 2
                    },
                    "indices" : 3,
                    "material" : 0
                }
            ]
        }
    ],
    "textures" : [
        {
            "sampler" : 0,
            "source" : 0
        }
    ],
    "images" : [
        {
            "bufferView" : 4,
            "mimeType" : "image/jpeg",
            "name" : "AudiQ8DiffuseMap"
        }
    ],
    "accessors" : [
        {
            "bufferView" : 0,
            "componentType" : 5126,
            "count" : 8293,
            "max" : [
                19.73970603942871,
                16.256576538085938,
                50.508426666259766
            ],
            "min" : [
                -19.739713668823242,
                -15.571752548217773,
                -45.66246032714844
            ],
            "type" : "VEC3"
        },
        {
            "bufferView" : 1,
            "componentType" : 5126,
            "count" : 8293,
            "type" : "VEC2"
        },
        {
            "bufferView" : 2,
            "componentType" : 5126,
            "count" : 8293,
            "type" : "VEC3"
        },
        {
            "bufferView" : 3,
            "componentType" : 5123,
            "count" : 15408,
            "type" : "SCALAR"
        }
    ],
    "bufferViews" : [
        {
            "buffer" : 0,
            "byteLength" : 99516,
            "byteOffset" : 0,
            "target" : 34962
        },
        {
            "buffer" : 0,
            "byteLength" : 66344,
            "byteOffset" : 99516,
            "target" : 34962
        },
        {
            "buffer" : 0,
            "byteLength" : 99516,
            "byteOffset" : 165860,
            "target" : 34962
        },
        {
            "buffer" : 0,
            "byteLength" : 30816,
            "byteOffset" : 265376,
            "target" : 34963
        },
        {
            "buffer" : 0,
            "byteLength" : 546082,
            "byteOffset" : 296192
        }
    ],
    "samplers" : [
        {
            "magFilter" : 9729,
            "minFilter" : 9987
        }
    ],
    "buffers" : [
        {
            "byteLength" : 842276,
            "uri" : "data:application/octet-stream;base64,"
        }
    ]
}
